<?xml version="1.0" encoding="us-ascii" standalone="no"?><svg xmlns="http://www.w3.org/2000/svg" xmlns:xlink="http://www.w3.org/1999/xlink" contentStyleType="text/css" height="781px" preserveAspectRatio="none" style="width:1013px;height:781px;background:#FFFFFF;" version="1.1" viewBox="0 0 1013 781" width="1013px" zoomAndPan="magnify"><defs/><g><text fill="#000000" font-family="sans-serif" font-size="14" font-weight="bold" lengthAdjust="spacing" textLength="196" x="407.25" y="34.5332">S&#417; &#273;&#7891; Ho&#7841;t &#273;&#7897;ng &#272;&#259;ng nh&#7853;p</text><rect fill="none" height="22.6406" style="stroke:none;stroke-width:1.0;" width="980.5" x="15" y="51.0645"/><ellipse cx="99" cy="88.7051" fill="#222222" rx="10" ry="10" style="stroke:#222222;stroke-width:1.0;"/><rect fill="#F1F1F1" height="35.0938" rx="12.5" ry="12.5" style="stroke:#181818;stroke-width:0.5;" width="156" x="21" y="118.7051"/><text fill="#000000" font-family="sans-serif" font-size="12" lengthAdjust="spacing" textLength="136" x="31" y="141.1621">M&#7903; m&#224;n h&#236;nh &#272;&#259;ng nh&#7853;p</text><rect fill="#F1F1F1" height="35.0938" rx="12.5" ry="12.5" style="stroke:#181818;stroke-width:0.5;" width="148" x="25" y="173.7988"/><text fill="#000000" font-family="sans-serif" font-size="12" lengthAdjust="spacing" textLength="128" x="35" y="196.2559">Nh&#7853;p Email &amp; M&#7853;t kh&#7849;u</text><rect fill="#F1F1F1" height="35.0938" rx="12.5" ry="12.5" style="stroke:#181818;stroke-width:0.5;" width="122" x="38" y="228.8926"/><text fill="#000000" font-family="sans-serif" font-size="12" lengthAdjust="spacing" textLength="102" x="48" y="251.3496">Nh&#7845;n "&#272;&#259;ng nh&#7853;p"</text><line style="stroke:#000000;stroke-width:1.5;" x1="15" x2="15" y1="51.0645" y2="769.4785"/><rect fill="#F1F1F1" height="35.0938" rx="12.5" ry="12.5" style="stroke:#181818;stroke-width:0.5;" width="147" x="415" y="283.9863"/><text fill="#000000" font-family="sans-serif" font-size="12" lengthAdjust="spacing" textLength="127" x="425" y="306.4434">G&#7917;i y&#234;u c&#7847;u &#273;&#259;ng nh&#7853;p</text><rect fill="#F1F1F1" height="35.0938" rx="12.5" ry="12.5" style="stroke:#181818;stroke-width:0.5;" width="124" x="426.5" y="504.3613"/><text fill="#000000" font-family="sans-serif" font-size="12" lengthAdjust="spacing" textLength="104" x="436.5" y="526.8184">L&#432;u phi&#234;n l&#224;m vi&#7879;c</text><rect fill="#F1F1F1" height="35.0938" rx="12.5" ry="12.5" style="stroke:#181818;stroke-width:0.5;" width="140" x="418.5" y="559.4551"/><text fill="#000000" font-family="sans-serif" font-size="12" lengthAdjust="spacing" textLength="120" x="428.5" y="581.9121">Ki&#7875;m tra Vai tr&#242; (Role)</text><polygon fill="#F1F1F1" points="230.5,614.5488,290.5,614.5488,302.5,626.5488,290.5,638.5488,230.5,638.5488,218.5,626.5488,230.5,614.5488" style="stroke:#181818;stroke-width:0.5;"/><text fill="#000000" font-family="sans-serif" font-size="11" lengthAdjust="spacing" textLength="44" x="264.5" y="649.9678">&#7912;ng vi&#234;n</text><text fill="#000000" font-family="sans-serif" font-size="11" lengthAdjust="spacing" textLength="60" x="230.5" y="631.0498">Vai tr&#242; l&#224; g&#236;?</text><rect fill="#F1F1F1" height="35.0938" rx="12.5" ry="12.5" style="stroke:#181818;stroke-width:0.5;" width="147" x="187" y="672.3848"/><text fill="#000000" font-family="sans-serif" font-size="12" lengthAdjust="spacing" textLength="127" x="197" y="694.8418">V&#224;o Trang ch&#7911; T&#236;m vi&#7879;c</text><polygon fill="#F1F1F1" points="392.5,614.5488,468.5,614.5488,480.5,626.5488,468.5,638.5488,392.5,638.5488,380.5,626.5488,392.5,614.5488" style="stroke:#181818;stroke-width:0.5;"/><text fill="#000000" font-family="sans-serif" font-size="11" lengthAdjust="spacing" textLength="76" x="392.5" y="631.0498">Nh&#224; tuy&#7875;n d&#7909;ng</text><rect fill="#F1F1F1" height="35.0938" rx="12.5" ry="12.5" style="stroke:#181818;stroke-width:0.5;" width="173" x="344" y="658.5488"/><text fill="#000000" font-family="sans-serif" font-size="12" lengthAdjust="spacing" textLength="153" x="354" y="681.0059">V&#224;o Dashboard Tuy&#7875;n d&#7909;ng</text><polygon fill="#F1F1F1" points="594,614.5488,624,614.5488,636,626.5488,624,638.5488,594,638.5488,582,626.5488,594,614.5488" style="stroke:#181818;stroke-width:0.5;"/><text fill="#000000" font-family="sans-serif" font-size="11" lengthAdjust="spacing" textLength="30" x="594" y="631.0498">Admin</text><rect fill="#F1F1F1" height="35.0938" rx="12.5" ry="12.5" style="stroke:#181818;stroke-width:0.5;" width="144" x="537" y="658.5488"/><text fill="#000000" font-family="sans-serif" font-size="12" lengthAdjust="spacing" textLength="124" x="547" y="681.0059">V&#224;o Dashboard Admin</text><rect fill="#F1F1F1" height="35.0938" rx="12.5" ry="12.5" style="stroke:#181818;stroke-width:0.5;" width="99" x="691" y="668.4668"/><text fill="#000000" font-family="sans-serif" font-size="12" lengthAdjust="spacing" textLength="79" x="701" y="690.9238">V&#224;o Trang ch&#7911;</text><ellipse cx="488.5" cy="758.4785" fill="none" rx="11" ry="11" style="stroke:#222222;stroke-width:1.0;"/><ellipse cx="488.5" cy="758.4785" fill="#222222" rx="6" ry="6" style="stroke:#222222;stroke-width:1.0;"/><line style="stroke:#000000;stroke-width:1.5;" x1="181" x2="181" y1="51.0645" y2="769.4785"/><rect fill="#F1F1F1" height="35.0938" rx="12.5" ry="12.5" style="stroke:#181818;stroke-width:0.5;" width="138" x="826" y="339.0801"/><text fill="#000000" font-family="sans-serif" font-size="12" lengthAdjust="spacing" textLength="118" x="836" y="361.5371">X&#225;c th&#7921;c v&#7899;i Firebase</text><rect fill="#F1F1F1" height="35.0938" rx="12.5" ry="12.5" style="stroke:#181818;stroke-width:0.5;" width="190" x="800" y="394.1738"/><text fill="#000000" font-family="sans-serif" font-size="12" lengthAdjust="spacing" textLength="170" x="810" y="416.6309">L&#7845;y th&#244;ng tin User t&#7915; Database</text><rect fill="#F1F1F1" height="35.0938" rx="12.5" ry="12.5" style="stroke:#181818;stroke-width:0.5;" width="139" x="825.5" y="449.2676"/><text fill="#000000" font-family="sans-serif" font-size="12" lengthAdjust="spacing" textLength="119" x="835.5" y="471.7246">Tr&#7843; v&#7873; Token &amp; Profile</text><line style="stroke:#000000;stroke-width:1.5;" x1="794" x2="794" y1="51.0645" y2="769.4785"/><line style="stroke:#000000;stroke-width:1.5;" x1="994" x2="994" y1="51.0645" y2="769.4785"/><line style="stroke:#181818;stroke-width:1.0;" x1="99" x2="99" y1="98.7051" y2="118.7051"/><polygon fill="#181818" points="95,108.7051,99,118.7051,103,108.7051,99,112.7051" style="stroke:#181818;stroke-width:1.0;"/><line style="stroke:#181818;stroke-width:1.0;" x1="99" x2="99" y1="153.7988" y2="173.7988"/><polygon fill="#181818" points="95,163.7988,99,173.7988,103,163.7988,99,167.7988" style="stroke:#181818;stroke-width:1.0;"/><line style="stroke:#181818;stroke-width:1.0;" x1="99" x2="99" y1="208.8926" y2="228.8926"/><polygon fill="#181818" points="95,218.8926,99,228.8926,103,218.8926,99,222.8926" style="stroke:#181818;stroke-width:1.0;"/><line style="stroke:#181818;stroke-width:1.0;" x1="488.5" x2="488.5" y1="539.4551" y2="559.4551"/><polygon fill="#181818" points="484.5,549.4551,488.5,559.4551,492.5,549.4551,488.5,553.4551" style="stroke:#181818;stroke-width:1.0;"/><line style="stroke:#181818;stroke-width:1.0;" x1="260.5" x2="260.5" y1="638.5488" y2="672.3848"/><polygon fill="#181818" points="256.5,662.3848,260.5,672.3848,264.5,662.3848,260.5,666.3848" style="stroke:#181818;stroke-width:1.0;"/><line style="stroke:#181818;stroke-width:1.0;" x1="260.5" x2="260.5" y1="707.4785" y2="727.4785"/><polygon fill="#181818" points="256.5,717.4785,260.5,727.4785,264.5,717.4785,260.5,721.4785" style="stroke:#181818;stroke-width:1.0;"/><line style="stroke:#181818;stroke-width:1.0;" x1="430.5" x2="430.5" y1="638.5488" y2="658.5488"/><polygon fill="#181818" points="426.5,648.5488,430.5,658.5488,434.5,648.5488,430.5,652.5488" style="stroke:#181818;stroke-width:1.0;"/><line style="stroke:#181818;stroke-width:1.0;" x1="430.5" x2="430.5" y1="693.6426" y2="727.4785"/><polygon fill="#181818" points="426.5,717.4785,430.5,727.4785,434.5,717.4785,430.5,721.4785" style="stroke:#181818;stroke-width:1.0;"/><line style="stroke:#181818;stroke-width:1.0;" x1="609" x2="609" y1="638.5488" y2="658.5488"/><polygon fill="#181818" points="605,648.5488,609,658.5488,613,648.5488,609,652.5488" style="stroke:#181818;stroke-width:1.0;"/><line style="stroke:#181818;stroke-width:1.0;" x1="609" x2="609" y1="693.6426" y2="727.4785"/><polygon fill="#181818" points="605,717.4785,609,727.4785,613,717.4785,609,721.4785" style="stroke:#181818;stroke-width:1.0;"/><line style="stroke:#181818;stroke-width:1.0;" x1="302.5" x2="380.5" y1="626.5488" y2="626.5488"/><polygon fill="#181818" points="370.5,622.5488,380.5,626.5488,370.5,630.5488,374.5,626.5488" style="stroke:#181818;stroke-width:1.0;"/><line style="stroke:#181818;stroke-width:1.0;" x1="480.5" x2="582" y1="626.5488" y2="626.5488"/><polygon fill="#181818" points="572,622.5488,582,626.5488,572,630.5488,576,626.5488" style="stroke:#181818;stroke-width:1.0;"/><line style="stroke:#181818;stroke-width:1.0;" x1="488.5" x2="488.5" y1="594.5488" y2="599.5488"/><line style="stroke:#181818;stroke-width:1.0;" x1="488.5" x2="260.5" y1="599.5488" y2="599.5488"/><line style="stroke:#181818;stroke-width:1.0;" x1="260.5" x2="260.5" y1="599.5488" y2="614.5488"/><polygon fill="#181818" points="256.5,604.5488,260.5,614.5488,264.5,604.5488,260.5,608.5488" style="stroke:#181818;stroke-width:1.0;"/><line style="stroke:#181818;stroke-width:1.0;" x1="636" x2="740.5" y1="626.5488" y2="626.5488"/><line style="stroke:#181818;stroke-width:1.0;" x1="740.5" x2="740.5" y1="626.5488" y2="668.4668"/><polygon fill="#181818" points="736.5,658.4668,740.5,668.4668,744.5,658.4668,740.5,662.4668" style="stroke:#181818;stroke-width:1.0;"/><line style="stroke:#181818;stroke-width:1.0;" x1="740.5" x2="740.5" y1="703.5605" y2="727.4785"/><polygon fill="#181818" points="736.5,717.4785,740.5,727.4785,744.5,717.4785,740.5,721.4785" style="stroke:#181818;stroke-width:1.0;"/><line style="stroke:#181818;stroke-width:1.0;" x1="260.5" x2="740.5" y1="727.4785" y2="727.4785"/><line style="stroke:#181818;stroke-width:1.0;" x1="488.5" x2="488.5" y1="727.4785" y2="747.4785"/><polygon fill="#181818" points="484.5,737.4785,488.5,747.4785,492.5,737.4785,488.5,741.4785" style="stroke:#181818;stroke-width:1.0;"/><line style="stroke:#181818;stroke-width:1.0;" x1="895" x2="895" y1="374.1738" y2="394.1738"/><polygon fill="#181818" points="891,384.1738,895,394.1738,899,384.1738,895,388.1738" style="stroke:#181818;stroke-width:1.0;"/><line style="stroke:#181818;stroke-width:1.0;" x1="895" x2="895" y1="429.2676" y2="449.2676"/><polygon fill="#181818" points="891,439.2676,895,449.2676,899,439.2676,895,443.2676" style="stroke:#181818;stroke-width:1.0;"/><line style="stroke:#181818;stroke-width:1.0;" x1="99" x2="99" y1="263.9863" y2="268.9863"/><line style="stroke:#181818;stroke-width:1.0;" x1="99" x2="488.5" y1="268.9863" y2="268.9863"/><line style="stroke:#181818;stroke-width:1.0;" x1="488.5" x2="488.5" y1="268.9863" y2="283.9863"/><polygon fill="#181818" points="484.5,273.9863,488.5,283.9863,492.5,273.9863,488.5,277.9863" style="stroke:#181818;stroke-width:1.0;"/><line style="stroke:#181818;stroke-width:1.0;" x1="488.5" x2="488.5" y1="319.0801" y2="324.0801"/><line style="stroke:#181818;stroke-width:1.0;" x1="488.5" x2="895" y1="324.0801" y2="324.0801"/><line style="stroke:#181818;stroke-width:1.0;" x1="895" x2="895" y1="324.0801" y2="339.0801"/><polygon fill="#181818" points="891,329.0801,895,339.0801,899,329.0801,895,333.0801" style="stroke:#181818;stroke-width:1.0;"/><line style="stroke:#181818;stroke-width:1.0;" x1="895" x2="895" y1="484.3613" y2="489.3613"/><line style="stroke:#181818;stroke-width:1.0;" x1="895" x2="488.5" y1="489.3613" y2="489.3613"/><line style="stroke:#181818;stroke-width:1.0;" x1="488.5" x2="488.5" y1="489.3613" y2="504.3613"/><polygon fill="#181818" points="484.5,494.3613,488.5,504.3613,492.5,494.3613,488.5,498.3613" style="stroke:#181818;stroke-width:1.0;"/><text fill="#000000" font-family="sans-serif" font-size="18" lengthAdjust="spacing" textLength="96" x="50" y="69.75">Ng&#432;&#7901;i d&#249;ng</text><text fill="#000000" font-family="sans-serif" font-size="18" lengthAdjust="spacing" textLength="138" x="418.5" y="69.75">&#7912;ng d&#7909;ng Mobile</text><text fill="#000000" font-family="sans-serif" font-size="18" lengthAdjust="spacing" textLength="102" x="843" y="69.75">Backend API</text><!--SRC=[TLAxIWD15EtdAmuMaln2B4JnYIQ8hc8xsPra1tTdm-vi8916B6mLAn4nGOAl22esPie9-O_v4szYC0IqkdVElUTnORJKaS31g8lXfJDNs4hSeAidZsjLn_1YU4P5XMxmsc2iNQcFtfovbGZibwgtMQPvgbcfxCmTOjjH26rVXVEq9LQgJ1ginrn6M4IPNXed13xbqsbFOM6EjR14Tiuy4X0uqwDIJgeo4crMsdJcLQ9bdtFuRl2GKzevEzPUvVw9K05MzhPf_zXsVUZGcNSVJMTk93PaAgey4sI-IzujcjfFKj1IuJ0JARGpBrZZca-tlDGDxiVaKtW9ITCHUsbIepp_nzmTlULeXD8-AqIs4wCfdJdtIMs7chCOEkKuufAg_K1XFub4aTHa3OLVb7Yes_voaHAIQ-77gJdMB3AWT6Gx2RoK4-ZJWG_mR7zc9A9CZEKg8Sdel4MkQXfpnbxZMLXDU1h0czkOqLU2MAg_29F1pzvVOMYY0bbZz4kI1li6]--></g></svg>